<mxfile host="app.diagrams.net" modified="2024-05-14T17:40:33.147Z" agent="Mozilla/5.0 (Windows NT 10.0; Win64; x64) AppleWebKit/537.36 (KHTML, like Gecko) Chrome/124.0.0.0 Safari/537.36" version="24.4.0" etag="4cpZY105LKyvl79sEPgk" type="github">
  <diagram name="Page-1" id="mDph-qVww1168IG4UzUj">
    <mxGraphModel>
      <root>
        <mxCell id="0" />
        <mxCell id="1" parent="0" />
      </root>
    </mxGraphModel>
  </diagram>
</mxfile>
